<svg id="Layer_1" data-name="Layer 1" xmlns="http://www.w3.org/2000/svg" viewBox="0 0 141.2 139.11"><defs><style>.logo-element{fill:white;}</style></defs><title>logo-skifood</title><path id="haut" class="logo-element" d="M0,78.74H141.07S113.24,29,95.53,13.7c-1.71.61-4.76,4.7-4.76,4.7S76.68,2.66,74.21,1.44A15.78,15.78,0,0,0,70.54,0s-2.62-.2-6.23,2.25S39.47,17.25,0,78.74Z" transform="translate(0 0)"/><path id="bas" class="logo-element" d="M109.15,139c-12.79.1-26.36.14-38.55.13V116.79h70.47S145.05,138.69,109.15,139Zm-77.09,0c12.78.1,26.36.14,38.54.13V116.79H.13S-3.85,138.69,32.06,139Z" transform="translate(0 0)"/><polyline id="steak" class="logo-element" points="0.27 88.16 140.8 88.16 140.8 106.1 0.27 106.1"/></svg>
