<svg version="1.1" xmlns="http://www.w3.org/2000/svg" viewBox="0 0 684.8 104.6">
<style type="text/css">
	.black-letter{fill:#2A2522;}
	.red-letter{fill:#6E1818;}
</style>
	<path class="black-letter" d="M70,75.2c0,19-15,29.4-34.8,29.4c-16.8,0-28.4-6.8-35.2-16.4l15.6-12.6c4.2,6,9.8,10.4,19,10.4
		C43.4,86,49,81.6,49,75.6c0-7.2-5.8-9.8-15.4-14l-5.2-2.2C13.2,52.8,3.2,44.8,3.2,27.6c0-15.8,12-27.8,30.8-27.8
		c11.8,0,20.8,3.8,27.4,13.2l-15,12.4c-3.4-5.2-7-7.2-12.4-7.2c-6.2,0-10.2,4-10.2,9c0,6.4,4,8.8,13,12.8l5.2,2.2
		C60,49.8,70,57.6,70,75.2z"/>
	<path class="black-letter" d="M167,104.6h-27.2l-25.2-28.8l-13.4,20.4v8.4H80.6V0h20.6v58.8L139.8,0H164l-37.8,57.8L167,104.6z"/>
	<path class="black-letter" d="M186.2,104.6V0h20.6v104.6H186.2z"/>
	<path class="red-letter" d="M301.2,20.6v31.8h30.6V73h-30.6v31.6h-20.6V73V52.4V20.6V0h20.6h48.2v20.6H301.2z"/>
	<path class="red-letter" d="M463,52.2c0,28.8-23.4,52.4-52.2,52.4c-29,0-52.4-23.6-52.4-52.4c0-29,23.4-52.4,52.4-52.4
		C439.6-0.2,463,23.2,463,52.2z M444.2,52.2c0-18.6-15-33.4-33.4-33.4c-18.6,0-33.6,14.8-33.6,33.4c0,18.4,15,33.4,33.6,33.4
		C429.2,85.6,444.2,70.6,444.2,52.2z"/>
	<path class="red-letter" d="M582.4,52.2c0,28.8-23.4,52.4-52.2,52.4c-29,0-52.4-23.6-52.4-52.4c0-29,23.4-52.4,52.4-52.4
		C559-0.2,582.4,23.2,582.4,52.2z M563.6,52.2c0-18.6-15-33.4-33.4-33.4c-18.6,0-33.6,14.8-33.6,33.4c0,18.4,15,33.4,33.6,33.4
		C548.6,85.6,563.6,70.6,563.6,52.2z"/>
	<path class="red-letter" d="M684.8,52.2c0,29-23.4,52.4-52.4,52.4h-14.6h-4.2h-16.4V0h17.2h3.4h14.6C661.4,0,684.8,23.4,684.8,52.2z
		 M665.4,52.2c0-18-14.8-32.8-33-32.8h-14.6v65.8h14.6C650.6,85.2,665.4,70.4,665.4,52.2z"/>
</svg>
