<?xml version="1.0" encoding="utf-8"?>
<!-- Generator: Adobe Illustrator 24.0.1, SVG Export Plug-In . SVG Version: 6.00 Build 0)  -->
<svg version="1.1" id="Layer_1" xmlns="http://www.w3.org/2000/svg" xmlns:xlink="http://www.w3.org/1999/xlink" x="0px" y="0px"
	 viewBox="0 0 141.2 139.1" style="enable-background:new 0 0 141.2 139.1;" xml:space="preserve">
<style type="text/css">
	.st0{fill:#2A2522;}
	.st1{fill:#6E1819;}
</style>
<path id="haut" class="st0" d="M141.1,78.7H0c0,0,27.8-49.7,45.5-65c1.7,0.6,4.8,4.7,4.8,4.7s14.1-15.7,16.6-17
	C69.3,0.2,70.5,0,70.5,0s2.6-0.2,6.2,2.2C80.4,4.7,101.6,17.2,141.1,78.7z"/>
<path id="bas" class="st0" d="M109.1,139c-12.8,0.1-26.4,0.1-38.5,0.1v-22.3h70.5C141.1,116.8,145.1,138.7,109.1,139z M32.1,139
	c12.8,0.1,26.4,0.1,38.5,0.1v-22.3H0.1C0.1,116.8-3.9,138.7,32.1,139z"/>
<polyline id="Steak" class="st1" points="0.3,88.2 140.8,88.2 140.8,106.1 0.3,106.1 "/>
</svg>
