<svg xmlns="http://www.w3.org/2000/svg" viewBox="0 0 186.81 105.01">
  <title>Montagne</title>
  <path d="M0,104.62q1.79-2.31,3.56-4.63Q13,87.44,22.48,74.89q9.94-13.23,19.85-26.46c.22-.31.45-.62.69-.91a6,6,0,0,1,9.48-.13c1.26,1.49,2.38,3.1,3.55,4.67q3.53,4.69,7,9.38c.29.39.6.75,1,1.27.39-.61.74-1.12,1.06-1.66q16.62-28.47,33.23-57a16.84,16.84,0,0,1,.93-1.53,6.07,6.07,0,0,1,10,.11l31.75,47.15c2.16,3.2,4.32,6.38,6.49,9.57.3.45.63.87,1,1.42.53-.62,1-1.13,1.43-1.69,2.82-3.91,8.34-3.31,10.67.81,5.23,9.26,10.68,18.4,16,27.59q4.69,8,9.4,16c.22.37.41.76.7,1.3a12.86,12.86,0,0,1-1.31.15c-3.75,0-7.5,0-11.25,0a2.13,2.13,0,0,1-2.17-1.24q-8.4-14.54-16.88-29c-.3-.51-.61-1-1-1.65-1.31,1.56-2.5,3-3.67,4.37-7.27,8.73-14.55,17.43-21.78,26.19a3.31,3.31,0,0,1-2.9,1.33c-4.23-.08-8.47,0-12.71,0h-1.83a17.09,17.09,0,0,1,2.84-3.41c1-1.15,2.06-2.24,3.09-3.36s2-2.17,2.93-3.28,2-2.34,2.92-3.51L125.91,88c.93-1.13,1.88-2.25,2.81-3.38s1.95-2.33,2.93-3.5,1.86-2.25,2.88-3.5Q119.34,48.34,104.13,19c-1.08,1-29.06,48.65-32,54.45l23.51,31.38c-.64.07-1,.15-1.44.15-4,0-8,0-12,0a2.8,2.8,0,0,1-2.56-1.28Q64.45,83.47,49.27,63.29c-.44-.59-.9-1.17-1.44-1.89-.57.75-1,1.34-1.49,2q-15.1,20.13-30.18,40.28A2.9,2.9,0,0,1,13.49,105c-4-.09-7.93,0-11.9,0H.17Z" />
</svg>
