<svg xmlns="http://www.w3.org/2000/svg" viewBox="0 0 114.4 185.09"><defs><style>.cls-1{fill:#6d1819;fill-rule:evenodd;}</style></defs><title>Asset 4</title><g id="Layer_2" data-name="Layer 2"><g id="Layer_1-2" data-name="Layer 1"><g id="Picto_Chaude" data-name="Picto Chaude"><path class="cls-1" d="M6.72,88.39c-2,0-3.76,0-5.52,0-.41,0-1.12-.54-1.14-.86C0,85.3,0,83.11,0,80.73H114v7.61h-6.13c-.44,3.2-.87,6.26-1.28,9.33q-1.86,13.69-3.7,27.4l-3.39,25-3.36,25c-.38,2.76-.88,5.52-1.1,8.29-.11,1.47-.69,1.71-2,1.71q-26.17-.06-52.35,0c-6.44,0-12.88,0-19.32,0-1.21,0-1.63-.31-1.79-1.58-1.29-10-2.69-20-4-29.95s-2.65-19.87-4-29.8S8.81,103.91,7.46,94C7.21,92.18,7,90.37,6.72,88.39Z"/><path class="cls-1" d="M.08,70.56c2.8-3.74,5.42-7.26,8.09-10.74a2.26,2.26,0,0,1,1.22-.55,4.73,4.73,0,0,1,1.13,0q46.77,0,93.55,0a3.28,3.28,0,0,1,3.07,1.5c2,2.81,4.09,5.51,6.15,8.26.34.45.66.93,1.11,1.58Z"/><path class="cls-1" d="M75.06,45c.55-6.57,1.3-12.64,1.44-18.72.06-2.61-1-5.33-1.83-7.87-2.08-6-2.16-12.7,2.58-17.94a1.27,1.27,0,0,1,.31-.28,60.46,60.46,0,0,0,.68,7.89,23.65,23.65,0,0,0,2.63,7.18c3.75,6.33,3.51,12.71.58,19.07-1.51,3.28-3.69,6.25-5.58,9.36C75.65,44.05,75.42,44.42,75.06,45Z"/><path class="cls-1" d="M54.07,44.47c.53-5.58,1.06-11.22,1.6-16.86A16.56,16.56,0,0,0,54,18.87C52.3,15.34,52.39,11.7,52.51,8c.07-2.3,2.5-6.46,4.24-7.86,0,1.92-.37,4.05.09,6a36.55,36.55,0,0,0,3.22,9.33,18.83,18.83,0,0,1,1,17.45c-1.64,3.8-4.08,7.25-6.19,10.84A3.25,3.25,0,0,1,54.07,44.47Z"/><path class="cls-1" d="M33.21,44.44c.5-6,1.26-12,1.39-18.12.06-2.66-1-5.41-1.87-8-2.07-6.24-2.08-12.76,2.8-18A2,2,0,0,1,36,0c0,2.29-.36,4.6.09,6.76a40.25,40.25,0,0,0,2.8,8.31c3.39,7.46,3.54,14.76-.55,22-1.24,2.19-2.7,4.25-4.09,6.35A8.25,8.25,0,0,1,33.21,44.44Z"/></g></g></g></svg>