<svg xmlns="http://www.w3.org/2000/svg" viewBox="0 0 144.88 177.8" style="width: 33px;">
  <title>Frites</title>
  <path d="M75,34.74c2.51-2.72,4.93-.84,7.42-.66q2.33-9.27,4.62-18.5Q88.6,9.4,90.12,3.23c.7-2.76,2.23-3.7,5-3,4.6,1.13,9.2,2.27,13.79,3.45,2.9.74,3.71,2.17,3,5.12q-2.9,11.81-5.82,23.61c-.08.28-.13.57-.12.52a30.23,30.23,0,0,1,4.24,1.24c4.09,1.84,8.12,3.81,12.17,5.75,2.67,1.29,3.26,3,2,5.62-1.48,3.13-3,6.26-4.27,9.49,2.43-2.67,4.82-5.37,7.3-8,2.08-2.21,3.79-2.21,5.92-.09q5.06,5,10.07,10.06c2,2,2,3.64,0,5.83-2.63,2.94-5.21,5.9-7.73,8.92a14.93,14.93,0,0,0-3.45,6.79c-1.69,8.11-3.92,16.11-5.93,24.15q-8.91,35.65-17.83,71.3c-.81,3.24-1.54,3.83-4.93,3.83H32.7c-3.26,0-4-.62-4.81-3.73C20,142.38,12,110.7,4.22,79c-.66-2.71-1.37-5-3.4-7-1.36-1.35-1-3.21.64-4.82,3.53-3.54,7.08-7,10.81-10.75-2.38-2.66-4.67-5.28-7-7.84-2.12-2.31-2.15-3.9,0-6.1,3.31-3.32,6.61-6.64,9.94-9.93,2-2,3.89-2,5.82,0,1.76,1.84,3.46,3.74,5,5.42l4.54-2.17c-1.18-2-2.38-4-3.6-6-2.31-3.85-4.65-7.69-6.94-11.55-1.38-2.31-1-4,1.28-5.38Q27.58,9,33.85,5.29c2.35-1.39,4.09-1,5.51,1.4q6,9.85,11.87,19.73a3.46,3.46,0,0,0,1.32,1.35V14.56c0-.75,0-1.5,0-2.24a3.33,3.33,0,0,1,3.49-3.57q7.68-.08,15.36,0c2.36,0,3.6,1.48,3.61,4.08,0,6.43,0,12.86,0,19.29ZM48,34a7.47,7.47,0,0,0,0,1.57c.64,2.72,1.32,5.43,2,8.14.71,2.86,1.45,5.72,2.18,8.58a79,79,0,0,0,.29-9.83,4.45,4.45,0,0,0-.75-1.85C50.51,38.34,49.24,36.15,48,34c-.37-.49-.77-1-1.09-1.48q-5.46-9-10.91-18.11c-.34-.56-.72-1.1-1.12-1.71L27.4,17.14c3.31,5.5,6.53,10.91,9.85,16.26a2.18,2.18,0,0,0,1.81.48c2.94-.48,5.88-2.28,8.78.13C47.86,34,48,34,48,34ZM61,88.53l.6,0c1.41-5.65,2.85-11.3,4.19-17C66.61,67.84,68,64.13,68,60.4c.26-14.22.11-28.44.1-42.67,0-.66-.06-1.32-.1-2H59.35V18c0,20-.07,40.05.07,60.08C59.45,81.58,60.42,85.05,61,88.53ZM80.48,40.76c-4.74,19-9.41,37.81-14.13,56.81,1.79,0,3.34.05,4.88,0,3.8-.14,4.19-.46,5.23-4.14.06-.24.1-.49.16-.74l8.1-32.47c1.42-5.73,2.83-11.46,4.27-17.33Zm28.63.41L83.3,95.27l.34.48c3.32-1.35,6.68-2.61,9.93-4.09a5.12,5.12,0,0,0,2.23-2.28Q106.11,68,116.28,46.55c.24-.49.42-1,.68-1.62Zm-67-.94L33.7,42.34c.06.44.08.74.15,1Q40,67.85,46.12,92.32A1.94,1.94,0,0,0,47,93.57c2.9,1,5.83,1.94,9.21,3C51.44,77.52,46.81,59,42.11,40.23Zm-6.7,39.35c.11,0,.22-.08.33-.12a5.9,5.9,0,0,0-.09-.72c-1.91-7.61-3.89-15.21-5.71-22.84a13.35,13.35,0,0,0-2.74-5.63c-3-3.65-6-7.32-8.76-10.76l-6.3,6.32s.17.24.34.42A135.76,135.76,0,0,1,32.41,74.89C33.27,76.53,34.41,78,35.41,79.58ZM96.75,41.42c2.62-10.55,5.24-21.09,7.9-31.77L96.11,7.54c-2.37,9.52-4.68,18.85-7,28.1C92.09,37.25,96.92,36,96.75,41.42Zm18.17,31.8c3.58,0,6.68,0,9.78,0a2.57,2.57,0,0,0,1.76-.67c3.35-4.18,6.63-8.42,9.82-12.51L130,53.68Zm-88,7.09.65-.57L15,63.94c-2.27,2.23-4.33,4.26-6.34,6.22,1,2.62,3.1,3.44,5.88,3.09,1.35-.17,2.75,0,4.12,0a4.4,4.4,0,0,1,3.84,1.87C23.9,76.88,25.45,78.57,26.94,80.31Z"/>
</svg>
