<svg xmlns="http://www.w3.org/2000/svg" viewBox="0 0 139.12 172.93" style="width: 33px;">
  <title>Paninis</title>
  <path id="Haut" d="M99.33,0C84.74,0,72.26,6.91,67.07,16.71c-.06.11-1.12,1.87-2.92,4.83,8.34-1.22,44-5.73,48.82,5.32,0,0,.38,3.23-.79,4.64,0,0-7.18-8.49-51.83-3.17,0,0,.19,0-.38.08L49.35,45.87c11.74-1.55,52.52-6,58.15,6.2,0,0,.46,3.67-1,5.27,0,0-8.6-9.54-61.91-3.71l-12,19.74c10.74-1.28,62.31-6.76,69.15,6,0,0,.54,3.67-1.12,5.28,0,0-10.07-9.64-72.69-3.63l-13,21.33-.62,1c10.46-1.15,70.11-7.07,77.89,5.93,0,0,.6,3.67-1.25,5.27,0,0-11.26-9.64-81.29-3.62L1.84,123.72a19,19,0,0,0,.66,17.47h0c7.49,12.55,27.66,21.54,51.36,21.54,27.85,0,50.83-12.42,54.08-28.44.27-1.29,25.51-102,25.74-103.06a20.9,20.9,0,0,0,.47-4.41C134.15,12,118.56,0,99.33,0Z"/>
  <path id="bas" d="M108.87,19.76,72.29,17.69l4-3.09c6.93-5.38,16.13-8.34,25.91-8.34h.17c9.75,0,18.93,3,25.84,8.38,7.07,5.49,11,12.82,10.92,20.64a22.48,22.48,0,0,1-.53,4.83c-.1.47-4.14,16.38-10.73,42.31C121.12,109,112.72,142,112.48,143.07c-1.73,8.35-8.41,16-18.82,21.48-10.22,5.41-23.37,8.38-37,8.38h-.35a83.61,83.61,0,0,1-32.54-6.35c-9.49-4.09-16.58-9.75-20.5-16.38l-.78-1.31.06-.06a20.88,20.88,0,0,1,0-18.05l.1-.18,5.79-9.36,86.59,7.48L123.47,23.44l-14.6-3.68M7.58,149.38C15.45,161,34.74,168.76,56.3,168.83h.34c13,0,25.47-2.81,35.11-7.91,9.31-4.92,15.25-11.56,16.73-18.7.14-.71,6.2-24.54,15.41-60.82,5.42-21.33,10.54-41.47,10.71-42.19a19.37,19.37,0,0,0,.43-4,21,21,0,0,0-6.49-14.86l-.49,1.8L98.11,133.09l-87.49-7.56-4.4,7.13a16.89,16.89,0,0,0,.53,15.4l.83,1.32ZM83.46,14.82l44.49,5c-6-5.73-15.23-9.42-25.6-9.46h-.16A40,40,0,0,0,83.46,14.82Z"/>
</svg>
