<svg xmlns="http://www.w3.org/2000/svg" viewBox="0 0 304.05 96.66" style="width: 66px;">
  <title>Sandwitches</title>
  <path id="Haut" d="M0,44.84C0,20.28,22.89.37,108.19.37c9.35,0,26-.57,44.53-.29h-1.38c18.56-.28,35.17.29,44.52.29,85.31,0,108.19,19.91,108.19,44.47"/>
  <polyline id="Steak" points="4.31 53.93 299.35 53.93 299.35 64.13 4.31 64.13"/>
  <path id="Bas" d="M152.11,96.66c-26.22,0-55.44,0-82.94-.15C-8.11,96.18.46,71.64.46,71.64H303.77s8.57,24.54-68.71,24.87C207.55,96.63,178.34,96.66,152.11,96.66Z"/>
</svg>
