<svg xmlns="http://www.w3.org/2000/svg" viewBox="0 0 281.74 113.48" style="width: 66px;">
  <title>Americains</title>
  <path id="Haut" d="M257,45.3C245.06,19.4,196,0,137.28,0A238.52,238.52,0,0,0,79,6.92a158.46,158.46,0,0,0-28.28,9.91C34.48,24.45,22.77,34.2,17.66,45.11c0,0-4.13,12.42,8.1,12.42H248.83C260.17,57.53,257.45,46.87,257,45.3Z"/>
  <path class="frites" d="M32.61,78.77a4.23,4.23,0,0,0-1.84,5.67l.66,1.14a4.23,4.23,0,0,0,5.85,1.18L63.77,71.3a4.24,4.24,0,0,0,1.85-5.68L65,64.48A4.24,4.24,0,0,0,59.1,63.3Z"/><path class="frites" d="M61.13,78.77a4.22,4.22,0,0,0-1.85,5.67L60,85.58a4.23,4.23,0,0,0,5.85,1.18L92.28,71.3a4.23,4.23,0,0,0,1.85-5.68l-.67-1.14a4.24,4.24,0,0,0-5.85-1.18Z"/>
  <path class="frites" d="M93,80a4,4,0,0,0-.08,5.65l.92.94a4,4,0,0,0,5.65,0l19.71-19.36a4,4,0,0,0,.09-5.64l-.93-1a4,4,0,0,0-5.64,0Z"/>
  <path class="frites" d="M122.17,81.65c-.7,1.55.36,3.55,2.36,4.44l1.2.54c2,.9,4.19.37,4.89-1.19L139.33,66c.7-1.56-.35-3.55-2.35-4.45l-1.21-.54c-2-.9-4.19-.36-4.89,1.19Z"/>
  <path class="frites" d="M151.55,85.34c.46,1.64,2.55,2.48,4.66,1.88l1.27-.36c2.11-.6,3.44-2.42,3-4.06l-5.84-20.45c-.47-1.65-2.55-2.49-4.66-1.89l-1.27.36c-2.11.6-3.44,2.42-3,4.06Z"/>
  <path class="frites" d="M191.87,80.22a4,4,0,0,1,.08,5.64l-.92,1a4,4,0,0,1-5.65,0L165.67,67.46a4,4,0,0,1-.09-5.64l.93-.94a4,4,0,0,1,5.64,0Z"/>
  <path class="frites" d="M219.79,77.39a4.24,4.24,0,0,1,1.85,5.68L221,84.21a4.24,4.24,0,0,1-5.85,1.18L188.64,69.92a4.22,4.22,0,0,1-1.85-5.67l.66-1.14a4.23,4.23,0,0,1,5.85-1.18Z"/>
  <path class="frites" d="M250.19,77.15A4.25,4.25,0,0,1,252,82.83L251.37,84a4.24,4.24,0,0,1-5.85,1.18L219,69.68A4.24,4.24,0,0,1,217.18,64l.67-1.14a4.24,4.24,0,0,1,5.85-1.18Z"/>
  <path class="frites" d="M279.71,80a4.23,4.23,0,0,1,1.38,5.81l-.75,1.08a4.24,4.24,0,0,1-5.93.71L249.26,70.05a4.22,4.22,0,0,1-1.38-5.8l.76-1.09a4.22,4.22,0,0,1,5.92-.7Z"/>
  <path id="Bas" d="M137.05,113.48c-20.64,0-43.64,0-65.29-.13-60.82-.3-54.08-23.06-54.08-23.06H256.42s6.75,22.76-54.08,23.06C180.69,113.46,157.7,113.49,137.05,113.48Z"/><path d="M3.4,70.77a4.24,4.24,0,0,0-3.28,5L.46,77A4.23,4.23,0,0,0,5.8,79.71l29.62-7.95a4.23,4.23,0,0,0,3.28-5l-.35-1.28A4.23,4.23,0,0,0,33,62.82Z"/>
</svg>
