<svg xmlns="http://www.w3.org/2000/svg" viewBox="0 0 160.14 117.87" style="width: 33px;">
  <title>Asset 1</title>
  <path id="haut" d="M80.07,0A97.38,97.38,0,0,0,42.21,7.47,81.52,81.52,0,0,0,23.84,18.18C9.43,29.42.51,40.25.51,57.42H159.63C159.63,23.1,124,0,80.07,0Z"/>
  <polyline id="steak" points="0.51 69.22 159.63 69.22 159.63 82.93 0.51 82.93"/>
  <path id="bas" d="M123.78,117.72c-14.49.12-29.89.15-43.71.15V92.82H160S164.51,117.4,123.78,117.72Zm-87.42,0c14.49.12,29.89.15,43.71.15V92.82H.15S-4.37,117.4,36.36,117.72Z"/>
</svg>
