<svg xmlns="http://www.w3.org/2000/svg" viewBox="0 0 171.01 172.38" style="width: 33px;">
  <title>Cheesemountain</title>
  <path id="haut" d="M0,97.57H170.85S137.15,36,115.7,17c-2.08.76-5.77,5.82-5.77,5.82S92.87,3.3,89.87,1.78A18.41,18.41,0,0,0,85.43,0s-3.17-.26-7.55,2.78S47.81,21.37,0,97.57Z"/>
  <path id="salade" d="M170.85,137.18a29.94,29.94,0,0,1-12.69-2.5,30.86,30.86,0,0,0-23.43,0,29.94,29.94,0,0,1-12.69,2.5,29.86,29.86,0,0,1-12.69-2.5,27.52,27.52,0,0,0-11.72-2.31,27.52,27.52,0,0,0-11.72,2.31,29.9,29.9,0,0,1-12.69,2.5,29.94,29.94,0,0,1-12.69-2.5,27.52,27.52,0,0,0-11.72-2.31,27.43,27.43,0,0,0-11.71,2.31,29.94,29.94,0,0,1-12.69,2.5,29.86,29.86,0,0,1-12.69-2.5A27.52,27.52,0,0,0,0,132.37v-3.16a30.08,30.08,0,0,1,12.69,2.49A27.34,27.34,0,0,0,24.41,134a27.26,27.26,0,0,0,11.71-2.32,30.12,30.12,0,0,1,12.69-2.49A30,30,0,0,1,61.5,131.7,27.34,27.34,0,0,0,73.22,134a27.34,27.34,0,0,0,11.72-2.32,30.08,30.08,0,0,1,12.69-2.49,30.12,30.12,0,0,1,12.69,2.49A27.31,27.31,0,0,0,122,134a27.26,27.26,0,0,0,11.71-2.32,33.61,33.61,0,0,1,25.39,0A27.26,27.26,0,0,0,170.85,134Z"/>
  <rect id="steak" y="105.63" width="170.85" height="14.18"/>
  <path id="bas" d="M132.19,172.22c-15.48.12-31.93.16-46.69.15V144.71h85.35S175.68,171.85,132.19,172.22Zm-93.37,0c15.48.12,31.93.16,46.68.15V144.71H.16S-4.66,171.85,38.82,172.22Z"/>
</svg>
