<svg xmlns="http://www.w3.org/2000/svg" viewBox="0 0 198.55 197.77"><defs><style>.cls-1{fill:#6d1819;fill-rule:evenodd;}</style></defs><title>Asset 4</title><g id="Layer_2" data-name="Layer 2"><g id="Layer_1-2" data-name="Layer 1"><path class="cls-1" d="M171.58.05c2.94.34,5.91.55,8.82,1.05,4.44.76,8.86,1.68,13.25,2.64a2.3,2.3,0,0,1,1.4,1.44,110,110,0,0,1,2.19,44.36c-4.15,26.84-16.41,49.31-36.52,67.54a4.59,4.59,0,0,0-1.19,2.06c-4.22,14.94-11.36,28.2-22.21,39.39-.27.27-.48.6-.85,1.06-.47-.67-.81-1.13-1.13-1.61q-5.81-8.73-11.58-17.47c-.55-.84-1-1.19-2.09-.82a111.08,111.08,0,0,1-42.08,5.71c-.86-.05-1.73,0-2.77,0a114.12,114.12,0,0,1-8.88,52.39c-.42-.75-.7-1.24-1-1.74Q56,175.33,45,154.64a5.47,5.47,0,0,0-2.11-2.13q-20.5-11.14-41.07-22.18L0,129.27a113.94,113.94,0,0,1,52.54-8.47A115,115,0,0,1,69.37,52.72c-1.89,1.83-3.85,3.6-5.62,5.53s-3.53,4.09-5.15,6.24S55.45,68.87,54,71.15s-2.67,4.65-4.12,7.22L34.43,56.73C52.19,39,71.83,24.86,97.85,22c2.57,23.32,12.76,42.09,31.29,56A68.75,68.75,0,0,0,161.2,91.33c-2.1-.74-4.23-1.38-6.29-2.21a70.77,70.77,0,0,1-35-29.17,64.18,64.18,0,0,1-9.86-29.42c-.36-4.86,0-9.77,0-14.65a2.59,2.59,0,0,1,1.68-2.51A112.47,112.47,0,0,1,158.07.27,15.2,15.2,0,0,0,159.69,0ZM158.85,50.18a10.7,10.7,0,1,0-10.53-10.9A10.77,10.77,0,0,0,158.85,50.18Z"/></g></g></svg>